<svg width="363" height="100" viewBox="0 0 363 100" fill="none" xmlns="http://www.w3.org/2000/svg">
<path fill-rule="evenodd" clip-rule="evenodd" d="M245.667 20H215.667V80H243.667V27C243.667 25.8955 244.563 25 245.667 25C246.771 25 247.667 25.8955 247.667 27V80H275.667V50C275.667 33.4314 262.235 20 245.667 20Z" fill="black"/>
<path fill-rule="evenodd" clip-rule="evenodd" d="M181.667 80C198.235 80 211.667 66.5686 211.667 50C211.667 33.4314 198.235 20 181.667 20C165.099 20 151.667 33.4314 151.667 50C151.667 66.5686 165.099 80 181.667 80ZM181.667 25C180.563 25 179.667 25.8955 179.667 27V73C179.667 74.1045 180.563 75 181.667 75C182.771 75 183.667 74.1045 183.667 73V27C183.667 25.8955 182.771 25 181.667 25Z" fill="black"/>
<path fill-rule="evenodd" clip-rule="evenodd" d="M147.667 20.0657C132.031 21.0948 119.667 34.1036 119.667 50.0001V80.0001H147.667V20.0657Z" fill="black"/>
<path fill-rule="evenodd" clip-rule="evenodd" d="M115.667 20.0657V79.9346C100.031 78.9051 87.6667 65.8966 87.6667 50.0001C87.6667 34.1036 100.031 21.0948 115.667 20.0657Z" fill="black"/>
</svg>
