<svg width="365" height="100" viewBox="0 0 365 100" fill="none" xmlns="http://www.w3.org/2000/svg">
<path d="M132.384 49.2098C135.758 49.2098 138.023 50.735 139.409 52.63V25.6381C139.409 25.1297 138.808 24.8062 138.392 25.1297L105.068 49.4871H105.947C109.413 49.4871 111.169 51.7056 111.169 54.109C111.169 56.004 110.199 57.3906 108.858 57.9914C108.627 58.0839 108.627 58.4074 108.858 58.4998C110.384 59.1469 111.493 60.7646 111.493 62.7058C111.493 65.4789 109.69 67.6512 106.224 67.6512H96.7494C96.5645 67.6512 96.3797 67.5125 96.3797 67.2814V55.8191L71.5601 73.9832C71.1441 74.3529 71.329 75 71.8836 75H138.808C139.132 75 139.363 74.7689 139.363 74.4454V65.2478C137.56 66.9117 135.203 67.9747 132.338 67.9747C126.976 67.9747 122.632 64.2772 122.632 58.5923C122.678 52.8611 127.069 49.2098 132.384 49.2098ZM119.119 67.3276C119.119 67.5125 118.98 67.6512 118.795 67.6512H115.606C115.421 67.6512 115.283 67.5125 115.283 67.3276V49.8107C115.283 49.6258 115.421 49.4871 115.606 49.4871H118.795C118.98 49.4871 119.119 49.6258 119.119 49.8107V67.3276Z" fill="black"/>
<path d="M100.631 56.6972H105.115C106.409 56.6972 107.241 55.9577 107.241 54.8022C107.241 53.6929 106.409 52.9072 105.115 52.9072H100.447C100.354 52.9072 100.262 52.9996 100.262 53.0921V56.3736C100.262 56.5585 100.447 56.6972 100.631 56.6972Z" fill="black"/>
<path d="M100.631 64.2771H105.3C106.732 64.2771 107.61 63.4914 107.61 62.1973C107.61 61.0418 106.779 60.1174 105.3 60.1174H100.631C100.447 60.1174 100.262 60.2561 100.262 60.4871V63.9074C100.262 64.0922 100.447 64.2771 100.631 64.2771Z" fill="black"/>
<path d="M136.498 54.7099C135.62 53.5544 134.141 52.6301 132.385 52.6301C129.057 52.6301 126.654 55.1721 126.654 58.5923C126.654 62.0125 129.057 64.5545 132.385 64.5545C133.91 64.5545 135.343 63.9075 136.129 63.2604C136.175 63.2142 136.221 63.1218 136.221 63.0293V61.273C136.221 61.1343 136.082 60.9957 135.944 60.9957H131.83C131.599 60.9957 131.46 60.8108 131.46 60.6259V58.0377C131.46 57.8066 131.645 57.6679 131.83 57.6679H139.456V53.5544L137.007 54.8948C136.822 54.941 136.591 54.8486 136.498 54.7099Z" fill="black"/>
<path d="M142.276 58.5924C142.276 52.9999 146.297 49.21 151.473 49.21C154.847 49.21 157.02 50.9201 158.314 52.9999C158.406 53.1386 158.36 53.3697 158.175 53.4159L156.095 54.5252C155.957 54.6176 155.772 54.5714 155.725 54.4327C154.847 53.0462 153.23 52.0293 151.473 52.0293C148.007 52.0293 145.419 54.7563 145.419 58.5924C145.419 62.3824 148.007 65.1555 151.473 65.1555C153.23 65.1555 154.847 64.1387 155.725 62.7521C155.818 62.6135 155.957 62.5673 156.095 62.6597L158.175 63.7227C158.36 63.8152 158.406 64 158.314 64.1849C156.973 66.2648 154.801 68.0211 151.473 68.0211C146.297 67.9749 142.276 64.1387 142.276 58.5924Z" fill="black"/>
<path d="M160.115 58.5922C160.115 54.0628 162.704 50.5501 166.586 49.5333C173.195 47.777 179.25 53.9703 177.817 60.8569C176.939 65.1091 173.565 68.0209 169.082 68.0209C163.813 67.9747 160.115 63.9998 160.115 58.5922ZM174.859 58.5922C174.859 54.8485 172.548 52.0291 169.036 52.0291C165.477 52.0291 163.212 54.8485 163.212 58.5922C163.212 62.3359 165.477 65.1553 169.036 65.1553C172.594 65.1553 174.859 62.2897 174.859 58.5922Z" fill="black"/>
<path d="M196.859 67.4201V53.6006L191.359 67.5125C191.359 67.5587 191.267 67.6049 191.221 67.6049H190.065C190.019 67.6049 189.926 67.5587 189.926 67.5125L184.38 53.6006V67.4201C184.38 67.5587 184.288 67.6511 184.149 67.6511H181.376C181.237 67.6511 181.145 67.5587 181.145 67.4201V49.672C181.145 49.5333 181.237 49.4409 181.376 49.4409H185.351C185.536 49.4409 185.674 49.5333 185.767 49.7182L190.62 62.1973L195.427 49.7182C195.473 49.5333 195.658 49.4409 195.843 49.4409H199.817C199.956 49.4409 200.048 49.5333 200.048 49.672V67.4201C200.048 67.5587 199.956 67.6511 199.817 67.6511H197.044C196.998 67.6511 196.859 67.5587 196.859 67.4201Z" fill="black"/>
<path d="M228.288 67.3277V49.8107C228.288 49.6258 228.427 49.4871 228.612 49.4871H240.398C240.583 49.4871 240.721 49.6258 240.721 49.8107V51.9367C240.721 52.1216 240.583 52.2603 240.398 52.2603H231.801C231.616 52.2603 231.477 52.3989 231.477 52.5838V56.6049C231.477 56.7897 231.616 56.9284 231.801 56.9284H240.213C240.398 56.9284 240.536 57.067 240.536 57.2519V59.378C240.536 59.5629 240.398 59.7015 240.213 59.7015H231.801C231.616 59.7015 231.477 59.8402 231.477 60.0251V64.4159C231.477 64.6007 231.616 64.7394 231.801 64.7394H240.398C240.583 64.7394 240.721 64.8781 240.721 65.0629V67.189C240.721 67.3739 240.583 67.5125 240.398 67.5125H228.612C228.427 67.6512 228.288 67.5125 228.288 67.3277Z" fill="black"/>
<path d="M255.511 67.4663L251.675 60.9957C251.629 60.9032 251.49 60.857 251.398 60.857H248.717C248.532 60.857 248.394 60.9957 248.394 61.1805V67.3277C248.394 67.5125 248.255 67.6512 248.07 67.6512H245.574C245.389 67.6512 245.251 67.5125 245.251 67.3277V49.8107C245.251 49.6258 245.389 49.4871 245.574 49.4871H253.247C256.852 49.4871 259.209 51.7981 259.209 55.1721C259.209 58.1763 257.36 59.8864 255.326 60.3948C255.095 60.441 255.003 60.6721 255.095 60.9032C255.835 62.1049 258.146 65.8024 259.024 67.1428C259.163 67.3739 259.024 67.6512 258.747 67.6512H255.835C255.696 67.6512 255.604 67.605 255.511 67.4663ZM255.927 55.1259C255.927 53.3695 254.633 52.2603 252.831 52.2603H248.763C248.578 52.2603 248.44 52.3989 248.44 52.5838V57.7141C248.44 57.899 248.578 58.0376 248.763 58.0376H252.831C254.633 58.0376 255.927 56.9284 255.927 55.1259Z" fill="black"/>
<path d="M280.747 67.3277V49.8107C280.747 49.6258 280.885 49.4871 281.07 49.4871H292.902C293.087 49.4871 293.226 49.6258 293.226 49.8107V51.983C293.226 52.1678 293.087 52.3065 292.902 52.3065H284.259C284.075 52.3065 283.936 52.4451 283.936 52.63V56.6973C283.936 56.8822 284.075 57.0208 284.259 57.0208H292.671C292.856 57.0208 292.995 57.1595 292.995 57.3444V59.5167C292.995 59.7015 292.856 59.8402 292.671 59.8402H284.259C284.075 59.8402 283.936 59.9788 283.936 60.1637V64.6007C283.936 64.7856 284.075 64.9243 284.259 64.9243H292.902C293.087 64.9243 293.226 65.0629 293.226 65.2478V67.4201C293.226 67.605 293.087 67.7436 292.902 67.7436H281.07C280.885 67.6512 280.747 67.5125 280.747 67.3277Z" fill="black"/>
<path d="M261.521 58.4998C261.521 52.9073 265.542 49.1174 270.718 49.1174C274.092 49.1174 276.265 50.8275 277.559 52.9073C277.651 53.046 277.605 53.2771 277.42 53.3233L275.34 54.4325C275.202 54.525 275.017 54.4788 274.97 54.3401C274.092 52.9535 272.475 51.9367 270.718 51.9367C267.252 51.9367 264.664 54.6636 264.664 58.4998C264.664 62.2898 267.252 65.0629 270.718 65.0629C272.475 65.0629 274.092 64.0461 274.97 62.6595C275.063 62.5209 275.202 62.4746 275.34 62.5671L277.42 63.6301C277.605 63.7226 277.651 63.9074 277.559 64.0923C276.218 66.1722 274.046 67.9285 270.718 67.9285C265.542 67.8823 261.521 64.0923 261.521 58.4998Z" fill="black"/>
<path d="M220.431 67.4201V53.6006L214.931 67.5125C214.931 67.5587 214.839 67.6049 214.792 67.6049H213.637C213.591 67.6049 213.498 67.5587 213.498 67.5125L207.952 53.6006V67.4201C207.952 67.5587 207.86 67.6511 207.721 67.6511H204.948C204.809 67.6511 204.717 67.5587 204.717 67.4201V49.672C204.717 49.5333 204.809 49.4409 204.948 49.4409H208.923C209.107 49.4409 209.246 49.5333 209.339 49.7182L214.192 62.1973L218.998 49.7182C219.045 49.5333 219.229 49.4409 219.414 49.4409H223.389C223.528 49.4409 223.62 49.5333 223.62 49.672V67.4201C223.62 67.5587 223.528 67.6511 223.389 67.6511H220.616C220.524 67.6511 220.431 67.5587 220.431 67.4201Z" fill="black"/>
</svg>
